<svg width="66" height="66" viewBox="0 0 66 66" fill="none" xmlns="http://www.w3.org/2000/svg">
<circle cx="33" cy="33" r="31" stroke="#E9E9E9" stroke-width="4"/>
<path d="M64 33C64 28.929 63.1982 24.8979 61.6403 21.1368C60.0824 17.3757 57.7989 13.9583 54.9203 11.0797C52.0417 8.20107 48.6243 5.91763 44.8632 4.35973C41.1021 2.80184 37.071 2 33 2" stroke="#0578D6" stroke-width="4"/>
<path d="M28.8955 27.2031V28.5654L23.9473 40H21.2754L26.2236 29.1807H19.8516V27.2031H28.8955ZM36.1113 27.2031L31.418 41.0986H29.5371L34.2305 27.2031H36.1113ZM45.9111 27.2031V28.5654L40.9629 40H38.291L43.2393 29.1807H36.8672V27.2031H45.9111Z" fill="#333333"/>
</svg>
